<?xml version="1.0" encoding="utf-8"?>
<!-- Generator: Adobe Illustrator 16.0.0, SVG Export Plug-In . SVG Version: 6.00 Build 0)  -->
<!DOCTYPE svg PUBLIC "-//W3C//DTD SVG 1.1//EN" "http://www.w3.org/Graphics/SVG/1.1/DTD/svg11.dtd">
<svg version="1.1" id="Aircraft_Parts" xmlns="http://www.w3.org/2000/svg" xmlns:xlink="http://www.w3.org/1999/xlink" x="0px"
	 y="0px" width="748.35px" height="187.09px" viewBox="0 0 748.35 187.09" enable-background="new 0 0 748.35 187.09"
	 xml:space="preserve">
<g id="_x32__1_">
	<path fill="none" stroke="#010101" stroke-width="0.5" stroke-miterlimit="10" d="M198.759,181.347
		c-50.341,2.455-83.185-15.4-84.873-12.126c-1.915,3.714,9.304,9.457,7.52,13.455c-3.924,8.8-45.655-11.023-55.494-15.266
		c-9.238-3.981-25.902-2.294-45.553-5.648c-10.068-1.717-17.322-4.848-17.56-14.811c-0.239-10.067,10.33-14.247,17.12-15.35
		c24.206-3.936,45.985-6.307,45.985-6.307s77.599-8.594,106.084-7.613c0,0,43.221-16.207,61.392-17.436h141.69
		c38.264,7.37,137.828,16.016,169.247,17.455c18.78,0.859,24.98-4.219,31.924-8.719c28.991-18.784,84.182-96.771,84.182-96.771
		l-0.206-8.39l85.133-1.638l0.202,9.004l-21.916,117.221c0,0,0,15.773-45.388,13.783c0,0-176.499-8.18-257.782-6.116
		c-44.33,1.125-74.448,27.377-126.948,37.876C255.727,181.509,213.219,180.641,198.759,181.347z"/>
	
		<line fill="none" stroke="#010101" stroke-width="0.5" stroke-miterlimit="10" stroke-dasharray="12,6" x1="660.423" y1="12.211" x2="745.552" y2="11.187"/>
</g>
</svg>
