<?xml version="1.0" encoding="utf-8"?>
<!-- Generator: Adobe Illustrator 16.0.0, SVG Export Plug-In . SVG Version: 6.00 Build 0)  -->
<!DOCTYPE svg PUBLIC "-//W3C//DTD SVG 1.1//EN" "http://www.w3.org/Graphics/SVG/1.1/DTD/svg11.dtd">
<svg version="1.1" id="Aircraft_Parts" xmlns="http://www.w3.org/2000/svg" xmlns:xlink="http://www.w3.org/1999/xlink" x="0px"
	 y="0px" width="345.83px" height="85.04px" viewBox="0 0 345.83 85.04" enable-background="new 0 0 345.83 85.04"
	 xml:space="preserve">
<g id="_x31_0">
	<g>
		<g>
			<g>
				
					<line fill="none" stroke="#010101" stroke-width="0.5" stroke-miterlimit="10" x1="172.913" y1="83.975" x2="172.913" y2="4.477"/>
				<g>
					<polygon fill="#010101" points="172.913,1.3 174.742,5.777 172.913,4.714 171.085,5.777 					"/>
				</g>
			</g>
		</g>
		<path fill="none" stroke="#010101" stroke-width="0.5" stroke-miterlimit="10" d="M172.913,1.3c0,0-91.503-0.529-164.136,0
			C4.741,1.645,2.556,5.802,2.148,7.539c-2.306,9.828,0.711,62.99,0.711,62.99l170.054,13.242"/>
		<path fill="none" stroke="#010101" stroke-width="0.5" stroke-miterlimit="10" d="M172.914,83.771l170.054-13.242
			c0,0,3.017-53.162,0.711-62.99c-0.407-1.737-2.593-5.895-6.63-6.239c-72.632-0.529-164.135,0-164.135,0"/>
	</g>
</g>
</svg>
