<?xml version="1.0" encoding="utf-8"?>
<!-- Generator: Adobe Illustrator 16.0.0, SVG Export Plug-In . SVG Version: 6.00 Build 0)  -->
<!DOCTYPE svg PUBLIC "-//W3C//DTD SVG 1.1//EN" "http://www.w3.org/Graphics/SVG/1.1/DTD/svg11.dtd">
<svg version="1.1" id="Aircraft_Parts" xmlns="http://www.w3.org/2000/svg" xmlns:xlink="http://www.w3.org/1999/xlink" x="0px"
	 y="0px" width="294.8px" height="68.03px" viewBox="0 0 294.8 68.03" enable-background="new 0 0 294.8 68.03"
	 xml:space="preserve">
<g id="_x37_">
	<path fill="none" stroke="#010101" stroke-width="0.5" stroke-miterlimit="10" d="M55.594,63.739
		c9.925,0.853,27.301,1.315,41.761,2.021c50.342,2.455,79.934-13.939,84.874-12.126c4.465,1.64,14.862,11.817,24.178,8.241
		c0,0,13.96-5.81,23.798-10.053c9.237-3.981,25.901-2.294,45.552-5.648c10.068-1.717,17.326-4.848,17.564-14.811
		c0.242-10.066-10.334-14.246-17.123-15.35c-24.205-3.935-45.985-6.306-45.985-6.306s-78.083-8.577-106.086-7.613
		c0,0-45.123,13.067-101.942,13.067c-25.447,0-28.589,29.423-2.969,38.354C34.604,58.883,41.092,62.493,55.594,63.739z"/>
	<path fill="#010101" d="M230.204,51.823c9.239-3.981,25.903-2.294,45.554-5.648c10.068-1.717,17.324-4.848,17.563-14.811
		c0.24-10.066-10.334-14.246-17.123-15.35c-24.205-3.935-45.985-6.306-45.985-6.306L230.204,51.823z"/>
</g>
</svg>
