<?xml version="1.0" encoding="utf-8"?>
<!-- Generator: Adobe Illustrator 16.0.0, SVG Export Plug-In . SVG Version: 6.00 Build 0)  -->
<!DOCTYPE svg PUBLIC "-//W3C//DTD SVG 1.1//EN" "http://www.w3.org/Graphics/SVG/1.1/DTD/svg11.dtd">
<svg version="1.1" id="Aircraft_Parts" xmlns="http://www.w3.org/2000/svg" xmlns:xlink="http://www.w3.org/1999/xlink" x="0px"
	 y="0px" width="640.63px" height="141.73px" viewBox="0 0 640.63 141.73" enable-background="new 0 0 640.63 141.73"
	 xml:space="preserve">
<g id="_x39_">
	<g>
		<g>
			<g>
				
					<line fill="none" stroke="#010101" stroke-width="0.5" stroke-miterlimit="10" x1="320.315" y1="141.206" x2="320.315" y2="3.705"/>
				<g>
					<polygon fill="#010101" points="320.315,0.526 322.146,5.003 320.315,3.942 318.486,5.003 					"/>
				</g>
			</g>
		</g>
		<path fill="none" stroke="#010101" stroke-width="0.5" stroke-miterlimit="10" d="M320.315,141.206l-28.346-5.322v-19.842
			l-183.33-34.619v-8.504L25.584,57.085v28.347C8.879,82.298,2.907,81.079,2.907,81.079S1.564,27.037,5.18,10.273
			c0.64-2.965,4.953-9.372,11.692-9.747L320.315,0.67"/>
		<path fill="none" stroke="#010101" stroke-width="0.5" stroke-miterlimit="10" d="M320.315,141.206l28.346-5.322v-19.842
			l183.33-34.619v-8.504l83.054-15.833v28.347c16.705-3.135,22.678-4.354,22.678-4.354s1.342-54.042-2.273-70.806
			c-0.639-2.965-4.953-9.372-11.691-9.747L320.315,0.67"/>
	</g>
</g>
</svg>
