<?xml version="1.0" encoding="utf-8"?>
<!-- Generator: Adobe Illustrator 16.0.0, SVG Export Plug-In . SVG Version: 6.00 Build 0)  -->
<!DOCTYPE svg PUBLIC "-//W3C//DTD SVG 1.1//EN" "http://www.w3.org/Graphics/SVG/1.1/DTD/svg11.dtd">
<svg version="1.1" id="Aircraft_Parts" xmlns="http://www.w3.org/2000/svg" xmlns:xlink="http://www.w3.org/1999/xlink" x="0px"
	 y="0px" width="725.67px" height="113.39px" viewBox="0 0 725.67 113.39" enable-background="new 0 0 725.67 113.39"
	 xml:space="preserve">
<g id="_x31_">
	<path fill="none" stroke="#010101" stroke-width="0.5" stroke-miterlimit="10" d="M198.378,107.105
		c-50.341,2.455-83.185-15.4-84.873-12.126c-1.915,3.714,9.304,9.457,7.52,13.455c-3.924,8.8-45.655-11.023-55.494-15.266
		c-9.238-3.981-25.902-2.294-45.553-5.648C9.91,85.804,2.656,82.673,2.418,72.71c-0.239-10.067,10.33-14.247,17.12-15.35
		c24.206-3.936,45.985-6.307,45.985-6.307s77.599-8.594,106.084-7.613c0,0,43.221-16.207,61.392-17.436h141.69
		c38.264,7.37,137.828,16.016,169.248,17.455c18.779,0.859,24.98-4.219,31.924-8.719c11.689-7.575,26.039-23.384,26.039-23.384
		c21.768-25.204,63.398,9.566,121.355,42.81c0,0,0,15.773-45.389,13.783c0,0-176.499-8.18-257.782-6.116
		c-44.33,1.125-74.448,27.377-126.948,37.876C255.346,107.268,212.838,106.399,198.378,107.105z"/>
</g>
</svg>
