<?xml version="1.0" encoding="utf-8"?>
<!-- Generator: Adobe Illustrator 16.0.0, SVG Export Plug-In . SVG Version: 6.00 Build 0)  -->
<!DOCTYPE svg PUBLIC "-//W3C//DTD SVG 1.1//EN" "http://www.w3.org/Graphics/SVG/1.1/DTD/svg11.dtd">
<svg version="1.1" id="Aircraft_Parts" xmlns="http://www.w3.org/2000/svg" xmlns:xlink="http://www.w3.org/1999/xlink" x="0px"
	 y="0px" width="748.35px" height="187.09px" viewBox="0 0 748.35 187.09" enable-background="new 0 0 748.35 187.09"
	 xml:space="preserve">
<g id="_x33_">
	<path fill="none" stroke="#010101" stroke-width="0.5" stroke-miterlimit="10" d="M549.587,181.347
		c50.341,2.455,83.185-15.4,84.873-12.126c1.915,3.714-9.304,9.457-7.52,13.455c3.925,8.8,45.655-11.023,55.494-15.266
		c9.238-3.981,25.901-2.294,45.553-5.648c10.068-1.717,17.321-4.848,17.56-14.811c0.24-10.067-10.33-14.247-17.119-15.35
		c-24.206-3.936-45.986-6.307-45.986-6.307s-77.599-8.594-106.084-7.613c0,0-43.221-16.207-61.392-17.436h-141.69
		c-38.264,7.37-137.828,16.016-169.247,17.455c-18.78,0.859-24.98-4.219-31.924-8.719c-28.991-18.784-84.182-96.771-84.182-96.771
		l0.206-8.39L2.996,2.183l-0.202,9.004L24.71,128.408c0,0,0,15.773,45.388,13.783c0,0,176.499-8.18,257.782-6.116
		c44.33,1.125,74.448,27.377,126.948,37.876C492.619,181.509,535.127,180.641,549.587,181.347z"/>
	
		<line fill="none" stroke="#010101" stroke-width="0.5" stroke-miterlimit="10" stroke-dasharray="12,6" x1="87.923" y1="12.211" x2="2.794" y2="11.187"/>
</g>
</svg>
