<?xml version="1.0" encoding="utf-8"?>
<!-- Generator: Adobe Illustrator 16.0.0, SVG Export Plug-In . SVG Version: 6.00 Build 0)  -->
<!DOCTYPE svg PUBLIC "-//W3C//DTD SVG 1.1//EN" "http://www.w3.org/Graphics/SVG/1.1/DTD/svg11.dtd">
<svg version="1.1" id="Aircraft_Parts" xmlns="http://www.w3.org/2000/svg" xmlns:xlink="http://www.w3.org/1999/xlink" x="0px"
	 y="0px" width="725.67px" height="107.72px" viewBox="0 0 725.67 107.72" enable-background="new 0 0 725.67 107.72"
	 xml:space="preserve">
<g id="_x35_">
	<path fill="none" stroke="#010101" stroke-width="0.5" stroke-miterlimit="10" d="M2.414,48.883c0,0,0,15.773,45.389,13.783
		c0,0,176.499-8.179,257.782-6.116c44.33,1.125,74.448,27.377,126.948,37.876c37.791,7.558,80.299,6.689,94.759,7.396
		c50.341,2.456,83.185-15.398,84.872-12.125c1.916,3.714-9.303,9.457-7.519,13.454c3.925,8.8,45.655-11.023,55.494-15.265
		c9.239-3.981,25.901-2.294,45.553-5.649c10.067-1.716,17.321-4.848,17.56-14.811c0.239-10.066-10.33-14.245-17.12-15.349
		c-24.205-3.934-45.985-6.306-45.985-6.306s-77.6-8.595-106.084-7.612c0,0-43.221-16.208-61.393-17.438l-0.253-18.383L352.446,2.35
		l-1.468,18.372C312.26,28.225,218.883,36.496,188.75,37.803C179.65,38.198,2.414,48.883,2.414,48.883z"/>
	<path fill="#010101" d="M452.121,51.226c47.396,0,85.928-8.548,101.941-13.065c0,0-43.221-16.209-61.393-17.438h-78.833
		c0,0-6.566,12.571-3.888,17.634C413.137,44.381,444.141,51.226,452.121,51.226z"/>
	<g>
		<g>
			
				<line fill="none" stroke="#010101" stroke-width="0.5" stroke-miterlimit="10" x1="492.67" y1="20.721" x2="485.92" y2="20.721"/>
			
				<line fill="none" stroke="#010101" stroke-width="0.5" stroke-miterlimit="10" stroke-dasharray="11.9946,5.9973" x1="479.174" y1="20.721" x2="361.102" y2="20.721"/>
			
				<line fill="none" stroke="#010101" stroke-width="0.5" stroke-miterlimit="10" x1="357.729" y1="20.721" x2="350.979" y2="20.721"/>
		</g>
	</g>
	<g>
		<g>
			
				<line fill="none" stroke="#010101" stroke-width="0.5" stroke-miterlimit="10" x1="394.908" y1="26.9" x2="395.016" y2="24.753"/>
			<g>
				<polygon fill="#010101" points="395.174,21.58 393.123,25.959 395.004,24.991 396.776,26.142 				"/>
			</g>
		</g>
	</g>
</g>
</svg>
