<?xml version="1.0" encoding="utf-8"?>
<!-- Generator: Adobe Illustrator 16.0.0, SVG Export Plug-In . SVG Version: 6.00 Build 0)  -->
<!DOCTYPE svg PUBLIC "-//W3C//DTD SVG 1.1//EN" "http://www.w3.org/Graphics/SVG/1.1/DTD/svg11.dtd">
<svg version="1.1" id="Aircraft_Parts" xmlns="http://www.w3.org/2000/svg" xmlns:xlink="http://www.w3.org/1999/xlink" x="0px"
	 y="0px" width="725.67px" height="107.72px" viewBox="0 0 725.67 107.72" enable-background="new 0 0 725.67 107.72"
	 xml:space="preserve">
<g id="_x34_">
	<path fill="none" stroke="#010101" stroke-width="0.5" stroke-miterlimit="10" d="M723.256,48.883c0,0,0,15.773-45.389,13.783
		c0,0-176.499-8.179-257.782-6.116c-44.33,1.125-74.448,27.377-126.948,37.876c-37.791,7.558-80.299,6.689-94.759,7.396
		c-50.341,2.456-83.184-15.398-84.873-12.125c-1.915,3.714,9.303,9.457,7.519,13.454c-3.924,8.8-45.655-11.023-55.494-15.265
		c-9.239-3.981-25.901-2.294-45.553-5.649C9.91,80.521,2.656,77.389,2.418,67.426c-0.239-10.066,10.33-14.245,17.12-15.349
		c24.205-3.934,45.985-6.306,45.985-6.306s77.6-8.595,106.084-7.612c0,0,43.22-16.208,61.392-17.438l0.253-18.383L373.224,2.35
		l1.468,18.372c38.719,7.504,132.096,15.774,162.229,17.082C546.02,38.198,723.256,48.883,723.256,48.883z"/>
	<path fill="#010101" d="M273.549,51.226c-47.396,0-85.928-8.548-101.941-13.065c0,0,43.22-16.209,61.392-17.438h78.833
		c0,0,6.566,12.571,3.888,17.634C312.534,44.381,281.529,51.226,273.549,51.226z"/>
	<g>
		<g>
			<line fill="none" stroke="#010101" stroke-width="0.5" stroke-miterlimit="10" x1="233" y1="20.721" x2="239.75" y2="20.721"/>
			
				<line fill="none" stroke="#010101" stroke-width="0.5" stroke-miterlimit="10" stroke-dasharray="11.9946,5.9973" x1="246.496" y1="20.721" x2="364.568" y2="20.721"/>
			
				<line fill="none" stroke="#010101" stroke-width="0.5" stroke-miterlimit="10" x1="367.941" y1="20.721" x2="374.691" y2="20.721"/>
		</g>
	</g>
	<g>
		<g>
			
				<line fill="none" stroke="#010101" stroke-width="0.5" stroke-miterlimit="10" x1="330.762" y1="26.9" x2="330.655" y2="24.753"/>
			<g>
				<polygon fill="#010101" points="330.497,21.58 332.547,25.959 330.667,24.991 328.894,26.142 				"/>
			</g>
		</g>
	</g>
</g>
</svg>
