<?xml version="1.0" encoding="utf-8"?>
<!-- Generator: Adobe Illustrator 16.0.0, SVG Export Plug-In . SVG Version: 6.00 Build 0)  -->
<!DOCTYPE svg PUBLIC "-//W3C//DTD SVG 1.1//EN" "http://www.w3.org/Graphics/SVG/1.1/DTD/svg11.dtd">
<svg version="1.1" id="Aircraft_Parts" xmlns="http://www.w3.org/2000/svg" xmlns:xlink="http://www.w3.org/1999/xlink" x="0px"
	 y="0px" width="294.8px" height="68.03px" viewBox="0 0 294.8 68.03" enable-background="new 0 0 294.8 68.03"
	 xml:space="preserve">
<g id="_x36_">
	<path fill="none" stroke="#010101" stroke-width="0.5" stroke-miterlimit="10" d="M239.211,63.739
		c-9.925,0.853-27.301,1.315-41.761,2.021c-50.342,2.455-79.934-13.939-84.874-12.126c-4.465,1.64-14.862,11.817-24.178,8.241
		c0,0-13.959-5.81-23.797-10.053c-9.237-3.981-25.901-2.294-45.552-5.648C8.98,44.458,1.723,41.327,1.484,31.364
		c-0.242-10.066,10.333-14.246,17.123-15.35c24.205-3.935,45.985-6.306,45.985-6.306s78.083-8.577,106.086-7.613
		c0,0,45.123,13.067,101.942,13.067c25.447,0,28.589,29.423,2.969,38.354C260.2,58.883,253.713,62.493,239.211,63.739z"/>
	<path fill="#010101" d="M64.601,51.823c-9.24-3.981-25.903-2.294-45.554-5.648C8.979,44.458,1.723,41.327,1.484,31.364
		c-0.241-10.066,10.333-14.246,17.123-15.35c24.205-3.935,45.985-6.306,45.985-6.306L64.601,51.823z"/>
</g>
</svg>
